<?xml version="1.0" encoding="UTF-8" standalone="no"?>
<svg
   xmlns:dc="http://purl.org/dc/elements/1.1/"
   xmlns:cc="http://creativecommons.org/ns#"
   xmlns:rdf="http://www.w3.org/1999/02/22-rdf-syntax-ns#"
   xmlns:svg="http://www.w3.org/2000/svg"
   xmlns="http://www.w3.org/2000/svg"
   viewBox="0 0 299.11066 457.33334"
   height="457.33334"
   width="299.11066"
   xml:space="preserve"
   id="svg3825"
   version="1.1"><metadata
     id="metadata3831"><rdf:RDF><cc:Work
         rdf:about=""><dc:format>image/svg+xml</dc:format><dc:type
           rdf:resource="http://purl.org/dc/dcmitype/StillImage" /><dc:title></dc:title></cc:Work></rdf:RDF></metadata><defs
     id="defs3829"><clipPath
       id="clipPath3877"
       clipPathUnits="userSpaceOnUse"><path
         id="path3875"
         d="M 0,343 H 224.333 V 0 H 0 Z" /></clipPath></defs><g
     transform="matrix(1.3333333,0,0,-1.3333333,0,457.33333)"
     id="g3833"><g
       transform="translate(98.8133,22.46)"
       id="g3835"><path
         id="path3837"
         style="fill:none;stroke:#892518;stroke-width:4.26999998;stroke-linecap:butt;stroke-linejoin:round;stroke-miterlimit:4;stroke-dasharray:none;stroke-opacity:1"
         d="m 0,0 -5.66,7.23 -5.66,7.23 -0.72,1.04 -4.17,5.37 -1.55,1.93 -0.71,0.9 -0.12,0.3 -0.36,0.59 -0.36,0.6 -0.12,0.74 -0.59,4.32 -0.24,1.94 0.12,0.75 0.12,0.89 0.23,1.04 0.24,0.901 0.24,0.889 0.48,1.04 3.1,7.31 0.24,0.74 0.35,0.75 1.91,4.47 0.12,0.44 0.24,0.45 0.24,0.75 0.35,0.89 0.12,0.15 0.84,2.23 0.71,1.641 0.6,1.049 0.48,0.59 0.47,0.75 3.94,5.06 0.95,1.2 1.07,1.78 0.36,0.45 0.24,0.6 0.24,1.04 0.12,0.75 0.12,0.89 v 0.6 l -0.12,0.741 -0.12,0.889 -0.12,0.75 -0.24,0.74 -1.43,4.03 -1.793,5.82 -0.24,0.45 -0.23,0.59 -0.24,0.45 -0.48,0.74 -1.387,1.836 -1.31,1.641 -4.05,4.92 -1.908,2.538 -0.776,0.953 0.149,0.755 0.105,0.467 -0.395,1.075 0.022,2.969 1.78,8.173 0.24,0.9 0.49,2.097 1.053,3.556 0.547,1.79 1.633,5.81 2.14,8.05 1.67,6.25 1.05,3.655 0.695,1.632 0.6,1.34 0.47,1.05 2.277,5.27 0.875,1.723 2.263,4.41 2.98,6.4 0.23,0.6 0.48,1.04 0.96,2.09 1.78,3.87 6.68,14.31 2.62,5.36 2.39,5.21 1.928,2.793 0.239,0.449 0.361,0.451 0.36,0.44 6.399,6.626 2.15,2.23 0.591,0.6 0.239,0.3 0.121,0.15 1.669,1.63 0.59,0.6 0.12,0.15 0.241,0.3 h 0.12 v 0.15 h 0.119 l 0.12,0.15 0.241,0.29 h 0.119 l 7.196,8.421 7.09,8.34 2.509,2.68 0.241,0.3 7.03,7.75 7.029,7.74 0.48,0.715 0.96,1.565 0.12,0.15 0.36,0.6 3.153,4.785 0.47,0.6 0.36,0.6 0.6,0.89 2.14,2.83 0.72,0.75 0.71,0.89 0.36,0.6 0.48,0.59 1.43,1.79 0.24,0.45 9.855,12.945 6.79,8.49 4.53,5.36 2.86,3.43 6.696,6.672" /></g><g
       transform="translate(208.9359,324.0054)"
       id="g3839"><path
         id="path3841"
         style="fill:#892518;fill-opacity:1;fill-rule:nonzero;stroke:none"
         d="m 0,0 -1.601,3.986 -3.98,1.615 9.429,3.814 z" /></g><g
       transform="translate(167.4837,288.4302)"
       id="g3843"><path
         id="path3845"
         style="fill:none;stroke:#892518;stroke-width:4.26999998;stroke-linecap:butt;stroke-linejoin:round;stroke-miterlimit:4;stroke-dasharray:none;stroke-opacity:1"
         d="M 0,0 -0.721,0.89 -3.58,4.92 v 0.15 l -0.471,0.59 -6.8,9.98 -0.95,1.64 -1.67,2.68 -3.099,3.28 -5.13,5.66 -1.55,2.09 -4.051,4.02 -0.464,0.437" /></g><g
       transform="translate(144.6683,324.5068)"
       id="g3847"><path
         id="path3849"
         style="fill:#892518;fill-opacity:1;fill-rule:nonzero;stroke:none"
         d="M 0,0 -4.005,-1.552 -5.669,-5.511 -9.367,3.963 Z" /></g><g
       transform="translate(71.2835,8.9004)"
       id="g3851"><path
         id="path3853"
         style="fill:none;stroke:#892518;stroke-width:4.26999998;stroke-linecap:butt;stroke-linejoin:round;stroke-miterlimit:10;stroke-dasharray:none;stroke-opacity:1"
         d="M 0,0 1.66,4.619 5.9,16.84 9.737,28.506" /></g><g
       transform="translate(16.7269,80.6543)"
       id="g3855"><path
         id="path3857"
         style="fill:none;stroke:#892518;stroke-width:4.26999998;stroke-linecap:butt;stroke-linejoin:round;stroke-miterlimit:10;stroke-dasharray:none;stroke-opacity:1"
         d="m 0,0 1.43,0.449 1.07,0.601 1.31,0.59 1.31,0.9 1.43,0.59 0.96,0.75 5.48,4.17 1.55,1.49 2.62,2.529 3.1,2.981 1.32,1.2 1.66,1.489 4.3,4.021 1.07,0.59 0.71,0.45 1.32,0.599 3.93,1.79 0.36,0.151 h 0.35 l 1.08,0.139 1.55,0.151 1.19,0.149 2.98,0.301 3.995,-0.31 0.12,0.15 0.71,0.149 0.72,0.151 2.26,1.04 0.72,0.45 0.95,0.439 0.6,0.451 0.83,0.599 0.72,0.74 2.38,2.391 h 0.12 l 0.36,0.29 0.12,0.15 0.35,0.299 0.12,0.151 1.79,1.79 1.004,1.127 2.215,1.79" /></g><g
       transform="translate(119.8236,222.6401)"
       id="g3859"><path
         id="path3861"
         style="fill:none;stroke:#892518;stroke-width:4.26999998;stroke-linecap:butt;stroke-linejoin:round;stroke-miterlimit:4;stroke-dasharray:none;stroke-opacity:1"
         d="m 0,0 -13.02,6.64 -2.14,0.3 -2.75,-0.15 -4.53,-0.15 h -0.47 l -5.61,0.657 -6.105,2.233" /></g><g
       transform="translate(89.6219,234.562)"
       id="g3863"><path
         id="path3865"
         style="fill:#892518;fill-opacity:1;fill-rule:nonzero;stroke:none"
         d="M 0,0 -3.192,-2.874 -3.34,-7.166 -10.164,0.375 Z" /></g><g
       transform="translate(143.0433,124.8301)"
       id="g3867"><path
         id="path3869"
         style="fill:none;stroke:#892518;stroke-width:4.26999998;stroke-linecap:butt;stroke-linejoin:round;stroke-miterlimit:10;stroke-dasharray:none;stroke-opacity:1"
         d="m 0,0 -13.95,3.58 -6.55,1.79 -0.36,0.15 -10.49,2.68 -8.7,2.239 -1.67,0.29 -0.24,0.151 h -0.48 l -0.24,0.15 -0.47,0.15 h -0.12 -0.12 l -0.72,0.45 h -0.24 l -0.23,0.15 -0.6,0.29 -0.12,0.15 -1.55,1.05 -2.14,1.93 -1.2,1.05 -1.19,0.59 -0.12,0.15" /></g><g
       id="g3871"><g
         clip-path="url(#clipPath3877)"
         id="g3873"><g
           transform="translate(124.4784,222.9414)"
           id="g3879"><path
             id="path3881"
             style="fill:#000000;fill-opacity:1;fill-rule:nonzero;stroke:none"
             d="m 0,0 c 0,-3.452 -2.798,-6.25 -6.25,-6.25 -3.452,0 -6.25,2.798 -6.25,6.25 0,3.452 2.798,6.25 6.25,6.25 C -2.798,6.25 0,3.452 0,0" /></g><g
           transform="translate(124.4784,222.9414)"
           id="g3883"><path
             id="path3885"
             style="fill:none;stroke:#ffffff;stroke-width:2;stroke-linecap:butt;stroke-linejoin:miter;stroke-miterlimit:10;stroke-dasharray:none;stroke-opacity:1"
             d="m 0,0 c 0,-3.452 -2.798,-6.25 -6.25,-6.25 -3.452,0 -6.25,2.798 -6.25,6.25 0,3.452 2.798,6.25 6.25,6.25 C -2.798,6.25 0,3.452 0,0 Z" /></g><g
           transform="translate(87.7782,121.7295)"
           id="g3887"><path
             id="path3889"
             style="fill:#000000;fill-opacity:1;fill-rule:nonzero;stroke:none"
             d="m 0,0 c 0,-3.451 -2.798,-6.25 -6.25,-6.25 -3.452,0 -6.25,2.799 -6.25,6.25 0,3.452 2.798,6.25 6.25,6.25 C -2.798,6.25 0,3.452 0,0" /></g><g
           transform="translate(87.7782,121.7295)"
           id="g3891"><path
             id="path3893"
             style="fill:none;stroke:#ffffff;stroke-width:2;stroke-linecap:butt;stroke-linejoin:miter;stroke-miterlimit:10;stroke-dasharray:none;stroke-opacity:1"
             d="m 0,0 c 0,-3.451 -2.798,-6.25 -6.25,-6.25 -3.452,0 -6.25,2.799 -6.25,6.25 0,3.452 2.798,6.25 6.25,6.25 C -2.798,6.25 0,3.452 0,0 Z" /></g><g
           transform="translate(89.6634,40.4307)"
           id="g3895"><path
             id="path3897"
             style="fill:#000000;fill-opacity:1;fill-rule:nonzero;stroke:none"
             d="m 0,0 c 0,-3.452 -2.798,-6.25 -6.25,-6.25 -3.452,0 -6.25,2.798 -6.25,6.25 0,3.452 2.798,6.25 6.25,6.25 C -2.798,6.25 0,3.452 0,0" /></g><g
           transform="translate(89.6634,40.4307)"
           id="g3899"><path
             id="path3901"
             style="fill:none;stroke:#ffffff;stroke-width:2;stroke-linecap:butt;stroke-linejoin:miter;stroke-miterlimit:10;stroke-dasharray:none;stroke-opacity:1"
             d="m 0,0 c 0,-3.452 -2.798,-6.25 -6.25,-6.25 -3.452,0 -6.25,2.798 -6.25,6.25 0,3.452 2.798,6.25 6.25,6.25 C -2.798,6.25 0,3.452 0,0 Z" /></g><g
           transform="translate(176.4788,284.1914)"
           id="g3903"><path
             id="path3905"
             style="fill:#000000;fill-opacity:1;fill-rule:nonzero;stroke:none"
             d="m 0,0 c 0,-3.452 -2.799,-6.25 -6.25,-6.25 -3.452,0 -6.251,2.798 -6.251,6.25 0,3.452 2.799,6.25 6.251,6.25 C -2.799,6.25 0,3.452 0,0" /></g><g
           transform="translate(176.4788,284.1914)"
           id="g3907"><path
             id="path3909"
             style="fill:none;stroke:#ffffff;stroke-width:2;stroke-linecap:butt;stroke-linejoin:miter;stroke-miterlimit:10;stroke-dasharray:none;stroke-opacity:1"
             d="m 0,0 c 0,-3.452 -2.799,-6.25 -6.25,-6.25 -3.452,0 -6.251,2.798 -6.251,6.25 0,3.452 2.799,6.25 6.251,6.25 C -2.799,6.25 0,3.452 0,0 Z" /></g><g
           transform="translate(92.5902,144.1914)"
           id="g3911"><path
             id="path3913"
             style="fill:#000000;fill-opacity:1;fill-rule:nonzero;stroke:none"
             d="m 0,0 c 0,-3.451 -2.798,-6.25 -6.25,-6.25 -3.452,0 -6.25,2.799 -6.25,6.25 0,3.452 2.798,6.25 6.25,6.25 C -2.798,6.25 0,3.452 0,0" /></g><g
           transform="translate(92.5902,144.1914)"
           id="g3915"><path
             id="path3917"
             style="fill:none;stroke:#ffffff;stroke-width:2;stroke-linecap:butt;stroke-linejoin:miter;stroke-miterlimit:10;stroke-dasharray:none;stroke-opacity:1"
             d="m 0,0 c 0,-3.451 -2.798,-6.25 -6.25,-6.25 -3.452,0 -6.25,2.799 -6.25,6.25 0,3.452 2.798,6.25 6.25,6.25 C -2.798,6.25 0,3.452 0,0 Z" /></g></g></g></g></svg>