<?xml version="1.0" encoding="UTF-8" standalone="no"?>
<svg
   xmlns:dc="http://purl.org/dc/elements/1.1/"
   xmlns:cc="http://creativecommons.org/ns#"
   xmlns:rdf="http://www.w3.org/1999/02/22-rdf-syntax-ns#"
   xmlns:svg="http://www.w3.org/2000/svg"
   xmlns="http://www.w3.org/2000/svg"
   viewBox="0 0 299.11066 457.33334"
   height="457.33334"
   width="299.11066"
   xml:space="preserve"
   id="svg3767"
   version="1.1"><metadata
     id="metadata3773"><rdf:RDF><cc:Work
         rdf:about=""><dc:format>image/svg+xml</dc:format><dc:type
           rdf:resource="http://purl.org/dc/dcmitype/StillImage" /><dc:title></dc:title></cc:Work></rdf:RDF></metadata><defs
     id="defs3771"><clipPath
       id="clipPath3799"
       clipPathUnits="userSpaceOnUse"><path
         id="path3797"
         d="M 0,343 H 224.333 V 0 H 0 Z" /></clipPath></defs><g
     transform="matrix(1.3333333,0,0,-1.3333333,0,457.33333)"
     id="g3775"><g
       transform="translate(97.8133,22.46)"
       id="g3777"><path
         id="path3779"
         style="fill:none;stroke:#b71613;stroke-width:4.26999998;stroke-linecap:butt;stroke-linejoin:round;stroke-miterlimit:4;stroke-dasharray:none;stroke-opacity:1"
         d="m 0,0 -5.66,7.23 -5.66,7.23 -0.72,1.04 -4.17,5.37 -1.55,1.93 -0.71,0.9 -0.12,0.3 -0.36,0.59 -0.36,0.6 -0.12,0.74 -0.59,4.32 -0.24,1.94 0.12,0.75 0.12,0.89 0.23,1.04 0.24,0.901 0.24,0.889 0.48,1.04 3.1,7.31 0.24,0.74 0.35,0.75 1.91,4.47 0.12,0.44 0.24,0.45 0.24,0.75 0.35,0.89 0.12,0.15 0.84,2.23 0.71,1.641 0.6,1.049 0.48,0.59 0.47,0.75 3.94,5.06 0.95,1.2 1.07,1.78 0.36,0.45 0.24,0.6 0.24,1.04 0.12,0.75 0.12,0.89 v 0.6 l -0.12,0.741 -0.12,0.889 -0.12,0.75 -0.24,0.74 -1.43,4.03 -1.793,5.82 -0.24,0.45 -0.23,0.59 -0.24,0.45 -0.48,0.74 -1.387,1.836 -1.31,1.641 -4.05,4.92 -1.908,2.538 -0.776,0.953 0.149,0.755 0.105,0.467 0.272,1.075 0.918,3.095 2.03,8.34 0.24,0.9 0.24,1.93 0.35,3.43 -0.12,1.79 1.44,5.81 2.14,8.05 1.67,6.25 1.05,3.655 0.695,1.632 0.6,1.34 0.47,1.05 2.277,5.27 0.875,1.723 2.263,4.41 2.98,6.4 0.23,0.6 0.48,1.04 0.96,2.09 1.78,3.87 6.68,14.31 2.62,5.36 2.39,5.21 1.928,2.793 0.239,0.449 0.361,0.451 0.36,0.44 6.399,6.626 2.15,2.23 0.591,0.6 0.239,0.3 0.121,0.15 1.669,1.63 0.59,0.6 0.12,0.15 0.241,0.3 h 0.12 v 0.15 h 0.119 l 0.12,0.15 0.241,0.29 h 0.119 l 7.196,8.421 7.09,8.34 2.509,2.68 0.241,0.3 7.03,7.75 7.029,7.74 0.48,0.715 0.96,1.565 0.12,0.15 0.36,0.6 3.153,4.785 0.47,0.6 0.36,0.6 0.6,0.89 2.14,2.83 0.72,0.75 0.71,0.89 0.36,0.6 0.48,0.59 1.43,1.79 0.24,0.45 9.855,12.945 6.79,8.49 4.53,5.36 2.86,3.43 6.696,6.672" /></g><g
       transform="translate(207.9359,324.0054)"
       id="g3781"><path
         id="path3783"
         style="fill:#b71613;fill-opacity:1;fill-rule:nonzero;stroke:none"
         d="m 0,0 -1.601,3.986 -3.98,1.615 9.429,3.814 z" /></g><g
       transform="translate(70.2835,8.9004)"
       id="g3785"><path
         id="path3787"
         style="fill:none;stroke:#777774;stroke-width:4.26999998;stroke-linecap:butt;stroke-linejoin:round;stroke-miterlimit:4;stroke-dasharray:none;stroke-opacity:1"
         d="M 0,0 1.66,4.619 5.9,16.84 9.737,28.506 7.27,31.568 6.456,32.6 l -1.25,1.75 -0.72,0.9 -0.12,0.3 -0.36,0.59 -0.35,0.599 -0.12,0.74 -0.922,6.929 -0.125,1.688 0.119,0.75 0.121,0.89 0.24,1.039 0.083,1.088 0.24,0.89 0.383,1.284 2.755,6.532 0.24,0.741 0.36,0.75 1.91,4.469 0.265,0.495 0.23,0.451 0.24,0.75 0.36,0.889 0.12,0.151 1.207,2.772 1.969,4.531 0.831,1.036 0.47,0.589 0.48,0.75 1.644,2.123 0.96,1.201 1.559,2.246 0.753,1.103 0.12,0.75 0.121,0.89 v 0.599 l -0.121,0.741 -0.12,0.89 -0.238,0.734 -0.24,0.74 -1.219,3.952 -0.969,3.281 -0.334,0.919 -0.239,0.59 -0.241,0.45 -1.582,2.115 -1.429,1.79 -0.237,0.21 -1.292,1.541 -4.239,5.104 -2.282,3.281 v 0.969 l 0.408,0.925 0.374,1.169 0.881,3.063 2.03,8.34 0.23,0.901 0.24,1.929 0.36,3.431 -0.12,1.79 1.43,5.81 2.15,8.049 1.67,6.251 1.451,4.321 0.389,1.235 0.59,1.34 0.48,1.05 3.69,8.04 0.79,1.454 0.83,1.639 2.98,6.401 0.24,0.599 0.48,1.04 0.95,2.091 1.79,3.869 6.67,14.31 2.63,5.361 2.38,5.21 2.15,4.47 0.24,0.45 0.35,0.449 0.36,0.441 5.37,5.519 2.14,2.231 0.6,0.599 0.24,0.301 0.12,0.15 1.66,1.63 0.6,0.6 0.12,0.15 0.24,0.3 h 0.12 v 0.15 h 0.12 l 0.12,0.15 0.23,0.29 h 0.12 l 7.1,8.35 7.089,8.34 2.5,2.68 0.241,0.3 7.03,7.75 7.04,7.739 0.36,0.451 0.59,0.6 0.72,0.89 0.12,0.15 0.35,0.6 3.22,4.61 0.48,0.6 0.36,0.599 0.12,0.151 0.47,0.739 2.149,2.831 0.711,0.75 -0.83,0.74 -0.721,0.889 -2.859,4.031 v 0.15 l -0.471,0.589 -6.799,9.98 -0.951,1.641 -1.67,2.68 -3.099,3.28 -5.13,5.66 -1.55,2.09 -4.051,4.02 -0.463,0.437" /></g><g
       transform="translate(143.6683,324.5068)"
       id="g3789"><path
         id="path3791"
         style="fill:#777774;fill-opacity:1;fill-rule:nonzero;stroke:none"
         d="M 0,0 -4.005,-1.552 -5.669,-5.511 -9.367,3.963 Z" /></g><g
       id="g3793"><g
         clip-path="url(#clipPath3799)"
         id="g3795"><g
           transform="translate(7.9334,84.4502)"
           id="g3801"><path
             id="path3803"
             style="fill:none;stroke:#541e82;stroke-width:4.26999998;stroke-linecap:butt;stroke-linejoin:round;stroke-miterlimit:4;stroke-dasharray:none;stroke-opacity:1"
             d="m 0,0 1.43,0.45 1.07,0.6 1.31,0.59 1.31,0.9 1.43,0.59 0.96,0.75 5.48,4.17 1.55,1.49 2.62,2.529 3.1,2.981 1.32,1.2 1.66,1.49 4.3,4.02 1.07,0.59 0.71,0.45 1.32,0.599 3.93,1.79 0.36,0.151 h 0.35 l 1.08,0.139 1.55,0.151 1.19,0.15 2.98,0.3 3.995,-0.31 0.12,0.15 0.71,0.149 0.72,0.151 2.26,1.04 0.72,0.45 0.95,0.439 0.6,0.451 0.83,0.6 0.72,0.739 2.38,2.391 h 0.12 l 0.36,0.29 0.12,0.15 0.35,0.299 0.12,0.151 1.79,1.79 1.003,1.127 2.215,1.79 0.36,0.59 0.36,0.599 0.35,0.601 0.24,0.59 0.12,0.75 0.24,1.04 v 0.299 l 2.447,9.003 0.24,0.891 0.24,1.939 0.36,3.431 -0.12,1.779 1.43,5.821 2.15,8.04 1.67,6.26 1.851,5.767 0.34,0.806 0.601,1.34 0.479,1.04 4.924,10.59 0.455,0.947 0.83,1.64 1.415,3.35 0.24,0.59 0.48,1.05 0.95,2.08 1.79,3.88 6.67,14.3 2.63,5.36 2.38,5.22 2.15,4.47 0.24,0.45 0.35,0.44 0.36,0.45 4.955,5.97 2.14,2.24 0.6,0.59 0.24,0.3 0.11,0.15 1.67,1.64 0.6,0.6 0.12,0.14 0.24,0.3 h 0.12 v 0.15 h 0.12 l 0.11,0.15 0.24,0.3 h 0.12 l 7.1,8.34 7.09,8.34 2.499,2.69 0.241,0.29 7.03,7.75 7.04,7.75 0.36,0.45 0.59,0.59 0.72,0.9 0.12,0.15 0.35,0.59 3.22,4.62 0.48,0.6 0.36,0.59 0.12,0.15 0.47,0.75 1.755,2.025 0.71,0.74 -0.83,0.75 -0.72,0.89 -2.86,4.02 v 0.15 l -0.47,0.6 -6.558,9.777 -0.95,1.64 -2.362,2.36 -3.1,3.28 -4.65,5.783 -2.03,1.957 -1.844,1.835" /></g></g></g><g
       transform="translate(139.4788,321.4111)"
       id="g3805"><path
         id="path3807"
         style="fill:#541e82;fill-opacity:1;fill-rule:nonzero;stroke:none"
         d="M 0,0 -3.956,-1.671 -5.501,-5.678 -9.48,3.681 Z" /></g><g
       transform="translate(142.0433,124.8301)"
       id="g3809"><path
         id="path3811"
         style="fill:none;stroke:#3d5100;stroke-width:4.26999998;stroke-linecap:butt;stroke-linejoin:round;stroke-miterlimit:4;stroke-dasharray:none;stroke-opacity:1"
         d="m 0,0 -13.95,3.58 -6.55,1.79 -0.36,0.15 -10.49,2.68 -8.7,2.239 -1.67,0.29 -0.24,0.151 h -0.48 l -0.24,0.15 -0.47,0.15 h -0.12 -0.12 l -0.72,0.45 h -0.24 l -0.23,0.15 -0.6,0.29 -0.12,0.15 -1.55,1.05 -2.14,1.93 -1.2,1.05 -1.19,0.59 -0.12,0.15 h -0.12 v 0.15 l 0.316,1.717 0.063,0.563 0.599,2.295 0.59,1.93 0.48,1.94 2.98,11.17 1.542,5.033 0.59,1.34 4.18,9.09 0.577,1.196 0.83,1.64 7.663,16.086 4.65,9.84 4.65,9.83 1.825,4.502 v 0.149 l -0.24,1.04 -2.895,1.309 -13.02,6.64 -2.14,0.3 -2.75,-0.15 -4.53,-0.15 h -0.47 l -5.61,0.657 -6.105,2.233" /></g><g
       transform="translate(88.6219,234.562)"
       id="g3813"><path
         id="path3815"
         style="fill:#3d5100;fill-opacity:1;fill-rule:nonzero;stroke:none"
         d="M 0,0 -3.192,-2.874 -3.34,-7.166 -10.164,0.375 Z" /></g><g
       transform="translate(105.409,163.5479)"
       id="g3817"><path
         id="path3819"
         style="fill:none;stroke:#000000;stroke-width:1;stroke-linecap:butt;stroke-linejoin:miter;stroke-miterlimit:10;stroke-dasharray:none;stroke-opacity:1"
         d="M 0,0 10.908,25.957" /></g><g
       transform="translate(117.7362,187.0503)"
       id="g3821"><path
         id="path3823"
         style="fill:#000000;fill-opacity:1;fill-rule:nonzero;stroke:none"
         d="M 0,0 -1.711,1.76 -4.165,1.75 -0.008,5.812 Z" /></g></g></svg>